<?xml version="1.0" encoding="UTF-8"?>
<svg width="39px" height="32px" viewBox="0 0 39 32" version="1.1" xmlns="http://www.w3.org/2000/svg" xmlns:xlink="http://www.w3.org/1999/xlink">
    <!-- Generator: sketchtool 51.2 (57519) - http://www.bohemiancoding.com/sketch -->
    <title>156F852E-07A2-46DD-A063-56081901FEDE</title>
    <desc>Created with sketchtool.</desc>
    <defs></defs>
    <g id="Page-1" stroke="none" stroke-width="1" fill="none" fill-rule="evenodd">
        <g id="About--Light" transform="translate(-514.000000, -409.000000)" fill="#4A4A4A" fill-rule="nonzero">
            <g id="Group-3" transform="translate(475.000000, 403.000000)">
                <g id="Group-12" transform="translate(11.000000, 0.000000)">
                    <g id="Group-18" transform="translate(4.000000, 0.000000)">
                        <g id="Group-19">
                            <g id="Group-6" transform="translate(24.500000, 6.000000)">
                                <path d="M18.9124502,0.161408 C18.8748187,0.16990712 18.8385104,0.183353124 18.8044956,0.201386667 L0.668131718,9.5880576 C0.523654941,9.66098028 0.432729651,9.80775728 0.432729651,9.9680576 C0.432729651,10.1283579 0.523654941,10.2751349 0.668131718,10.3480576 L18.8044956,19.7346987 C18.9310927,19.801078 19.0827713,19.801078 19.2093683,19.7346987 L37.345732,10.3480576 C37.4902088,10.2751349 37.581134,10.1283579 37.581134,9.9680576 C37.581134,9.80775728 37.4902088,9.66098028 37.345732,9.5880576 L19.2093683,0.201386667 C19.1183972,0.153471875 19.0130798,0.139291381 18.9124502,0.161408 Z M19.006932,1.06807467 L36.2122093,9.9747456 L19.006932,18.8680533 L1.80165427,9.9747456 L19.006932,1.06807467 Z M0.857095355,15.5080533 C0.653447089,15.5050859 0.475381882,15.6431071 0.4298136,15.8392463 C0.384245318,16.0353855 0.483561904,16.2363213 0.668131718,16.321408 L18.8044956,25.708032 C18.9310927,25.7744113 19.0827713,25.7744113 19.2093683,25.708032 L37.345732,16.321408 C37.483136,16.2499473 37.5715183,16.1114852 37.5775863,15.9581791 C37.5836542,15.804873 37.5064859,15.6600137 37.3751499,15.5781684 C37.2438139,15.496323 37.0782632,15.4899259 36.9408593,15.5613867 L19.006932,24.8413867 L1.07300445,15.5613867 C1.00698639,15.5252764 0.932544794,15.5068881 0.857095355,15.5080533 Z M0.857095355,21.4813867 C0.653484105,21.4784643 0.475472346,21.6164739 0.429910224,21.8125762 C0.384348101,22.0086786 0.48361707,22.2095832 0.668131718,22.2946987 L18.8044956,31.6813653 C18.9310927,31.7477447 19.0827713,31.7477447 19.2093683,31.6813653 L37.345732,22.2946987 C37.4842168,22.2238258 37.5736519,22.0850698 37.5800872,21.9311031 C37.5865224,21.7771364 37.5089712,21.6315665 37.3768723,21.5496524 C37.2447734,21.4677383 37.0783813,21.4620398 36.9408593,21.53472 L19.006932,30.81472 L1.07300445,21.53472 C1.00698639,21.4986098 0.932544794,21.4802214 0.857095355,21.4813867 Z" id="Shape"></path>
                            </g>
                        </g>
                    </g>
                </g>
            </g>
        </g>
    </g>
</svg>