<?xml version="1.0" encoding="UTF-8"?>
<svg width="30px" height="39px" viewBox="0 0 30 39" version="1.1" xmlns="http://www.w3.org/2000/svg" xmlns:xlink="http://www.w3.org/1999/xlink">
    <!-- Generator: sketchtool 51.2 (57519) - http://www.bohemiancoding.com/sketch -->
    <title>C369E38F-469B-435C-B759-D449C832C395</title>
    <desc>Created with sketchtool.</desc>
    <defs></defs>
    <g id="Page-1" stroke="none" stroke-width="1" fill="none" fill-rule="evenodd">
        <g id="About--Light" transform="translate(-618.000000, -152.000000)" fill="#4A4A4A" fill-rule="nonzero">
            <g id="Group-2" transform="translate(592.000000, 150.000000)">
                <g id="Group-11">
                    <g id="Group-15">
                        <g id="Group-5" transform="translate(26.000000, 2.000000)">
                            <path d="M8.4,22.8 C8.4,23 8.5,23.2 8.5,23.4 L9,26.1 L10,25.9 L9.5,23.2 C9.5,23 9.4,22.8 9.4,22.6 L9.3,22.3 C9,20.7 9.1,19.1 9.8,17.7 C10.4,16.3 12.9,15.1 15.1,15.1 C17.2,15.1 19.7,16.3 20.3,17.7 C20.9,19.1 21.1,20.6 20.8,22.3 L20.7,22.6 C20.7,22.8 20.6,23 20.6,23.2 L20.1,25.9 L21.1,26.1 L21.6,23.4 C21.6,23.2 21.7,23 21.7,22.8 L21.8,22.5 C22.2,20.7 22,18.9 21.3,17.3 C20.7,16.1 19.1,15 17.3,14.4 C18.5,13.6 19.4,12.2 19.4,10.6 C19.4,8.2 17.5,6.2 15.1,6.2 C12.7,6.2 10.8,8.2 10.8,10.6 C10.8,12.2 11.6,13.6 12.9,14.4 C11.1,14.9 9.5,16 8.9,17.3 C8.2,18.9 8,20.7 8.4,22.5 L8.4,22.8 Z M11.7,10.7 C11.7,8.8 13.2,7.3 15,7.3 C16.8,7.3 18.3,8.8 18.3,10.7 C18.3,12.6 16.8,14.1 15,14.1 C13.2,14.1 11.7,12.5 11.7,10.7 Z" id="Shape"></path>
                            <path d="M29.6,0 L0.4,0 L0.4,38.1 L29.6,38.1 L29.6,0 Z M28.6,37.1 L1.4,37.1 L1.4,1 L28.6,1 L28.6,37.1 Z" id="Shape"></path>
                            <path d="M27.1,28.1 L2.9,28.1 L2.9,35.6 L27.2,35.6 L27.2,28.1 L27.1,28.1 Z M26.1,34.6 L3.9,34.6 L3.9,29.1 L26.2,29.1 L26.2,34.6 L26.1,34.6 Z" id="Shape"></path>
                        </g>
                    </g>
                </g>
            </g>
        </g>
    </g>
</svg>