<?xml version="1.0" encoding="UTF-8"?>
<svg width="39px" height="39px" viewBox="0 0 39 39" version="1.1" xmlns="http://www.w3.org/2000/svg" xmlns:xlink="http://www.w3.org/1999/xlink">
    <!-- Generator: sketchtool 51.2 (57519) - http://www.bohemiancoding.com/sketch -->
    <title>6737F533-E254-4E6B-9FCA-4291CF87A3E6</title>
    <desc>Created with sketchtool.</desc>
    <defs></defs>
    <g id="Page-1" stroke="none" stroke-width="1" fill="none" fill-rule="evenodd">
        <g id="About--Light" transform="translate(-990.000000, -136.000000)" fill="#4A4A4A" fill-rule="nonzero" stroke="#F0F0F0">
            <g id="Group-9" transform="translate(969.000000, 134.000000)">
                <g id="Group-13">
                    <g id="Group-16">
                        <g id="Group-7" transform="translate(22.000000, 3.000000)">
                            <path d="M1.88247265,23.9056443 L1.88247265,1.93226889 L23.2895752,1.93226889 L23.2895752,10.6703753 C23.5971712,10.6495068 23.9066497,10.635208 24.2191402,10.635208 C24.5399135,10.635208 24.8569219,10.6502797 25.1720478,10.6723075 L25.1720478,0 L0,0 L0,25.8379131 L10.3724243,25.8379131 C10.3520936,25.5221804 10.3377868,25.2045154 10.3377868,24.8837588 C10.3377868,24.5545002 10.3528466,24.2291061 10.3743068,23.9056443 L1.88247265,23.9056443 Z M34.6762758,34.2483067 L32.8438769,32.3674362 C36.5975273,27.8173294 36.3874434,20.9755517 32.2079776,16.6855283 C30.0747596,14.4954948 27.2382498,13.289759 24.2213991,13.289759 C21.2045485,13.289759 18.3680387,14.4954948 16.2348207,16.6855283 C14.1016026,18.8751754 12.9265632,21.7867182 12.9265632,24.8833723 C12.9265632,27.9800264 14.1016026,30.8915692 16.2348207,33.0812163 C18.3680387,35.2712499 21.2045485,36.4773721 24.2213991,36.4773721 C26.9223709,36.4773721 29.4768863,35.508146 31.5133452,33.7343232 L35.6687153,38 L37,36.6338859 L34.6762758,34.2483067 Z M30.876693,31.7151022 C29.0992623,33.5395505 26.7356296,34.5451032 24.2213991,34.5451032 C21.7075452,34.5451032 19.3439125,33.5395505 17.5661053,31.7151022 C15.7882981,29.8902675 14.8090359,27.4641106 14.8090359,24.8833723 C14.8090359,22.3030204 15.7882981,19.8764772 17.5661053,18.0516424 C19.3439125,16.2268077 21.7075452,15.2220279 24.2213991,15.2220279 C26.7356296,15.2220279 29.0992623,16.2268077 30.8770694,18.0516424 C34.5467616,21.8187939 34.5467616,27.9479508 30.876693,31.7151022 Z" id="Shape"></path>
                        </g>
                    </g>
                </g>
            </g>
        </g>
    </g>
</svg>