<?xml version="1.0" encoding="UTF-8"?>
<svg width="40px" height="47px" viewBox="0 0 40 47" version="1.1" xmlns="http://www.w3.org/2000/svg" xmlns:xlink="http://www.w3.org/1999/xlink">
    <!-- Generator: sketchtool 51.2 (57519) - http://www.bohemiancoding.com/sketch -->
    <title>CFBCCD67-1730-4A3B-897B-C7B8F6C020CE</title>
    <desc>Created with sketchtool.</desc>
    <defs></defs>
    <g id="Page-1" stroke="none" stroke-width="1" fill="none" fill-rule="evenodd">
        <g id="About--Light" transform="translate(-1113.000000, -399.000000)" fill="#4A4A4A" fill-rule="nonzero">
            <g id="Group-10" transform="translate(1091.000000, 399.000000)">
                <g id="Group-14">
                    <g id="Group-17">
                        <g id="Group-8" transform="translate(22.000000, 0.000000)">
                            <path d="M10.3284614,0.201099269 C10.0466076,0.236154887 9.83863954,0.479446242 9.84969096,0.761188715 L9.84969096,37.1500606 L1.09503452,37.1500606 C1.06091217,37.1468716 1.02656345,37.1468716 0.992441096,37.1500606 C0.796927463,37.168216 0.626028709,37.2885387 0.544135391,37.4656939 C0.462242073,37.6428491 0.481799113,37.8499154 0.595437885,38.0088753 C0.709076657,38.1678351 0.899528042,38.2545321 1.09503452,38.2363009 L3.89926082,38.2363009 C3.18540658,38.9271891 2.7365326,39.8860648 2.7365326,40.9518746 L2.7365326,46.3830219 C2.73654609,46.6829766 2.98150787,46.9261393 3.28369863,46.9261693 L17.5100153,46.9261693 C17.8122061,46.9261393 18.0571679,46.6829766 18.0571814,46.3830219 L18.0571814,40.9518746 C18.0571814,39.8860648 17.6083079,38.9271891 16.8944537,38.2363009 L19.6986795,38.2363009 C19.8959583,38.2389954 20.0794243,38.1360706 20.1788556,37.9669211 C20.278287,37.7977716 20.278287,37.5885899 20.1788556,37.4194404 C20.0794243,37.2502909 19.8959583,37.1473662 19.6986795,37.1500606 L10.944023,37.1500606 L10.944023,0.761188715 C10.9503077,0.601651914 10.8855611,0.447450052 10.7669906,0.339564738 C10.6484202,0.231679423 10.4880355,0.181038012 10.3284614,0.201099269 Z M22.8790822,27.3739519 C22.5969173,27.4256417 22.4028911,27.6848858 22.4345096,27.9679582 L24.0760077,43.1752685 C24.1832811,44.1690282 24.6864712,45.0889446 25.3755271,45.7720084 C26.0645825,46.4551264 26.9584104,46.9261693 27.9061699,46.9261693 L34.4721622,46.9261693 C35.4199216,46.9261693 36.3137496,46.4551264 37.0028049,45.7720084 C37.6918603,45.0889446 38.195051,44.1690282 38.3023244,43.1752685 L39.9438225,27.9679582 C39.9582786,27.815325 39.9070801,27.6637355 39.8028599,27.5505936 C39.6986397,27.4374516 39.5511041,27.3732943 39.3966564,27.3739519 L22.9816756,27.3739519 C22.9475533,27.3707629 22.9132045,27.3707629 22.8790822,27.3739519 Z M23.5972373,28.4601923 L38.7810942,28.4601923 L37.2079923,43.0564347 C37.1326241,43.7546583 36.7612225,44.4679875 36.2333529,44.991302 C35.7054833,45.5146165 35.0400526,45.8399289 34.4721622,45.8399289 L27.9061699,45.8399289 C27.3382795,45.8399289 26.6728488,45.5146165 26.1449792,44.991302 C25.6171096,44.4679875 25.2457074,43.7546583 25.1703397,43.0564347 L23.5972373,28.4601923 Z M6.56669479,38.2363009 L14.2270192,38.2363009 C15.7521332,38.2363009 16.9628493,39.4380606 16.9628493,40.9518746 L16.9628493,45.8399289 L3.83086466,45.8399289 L3.83086466,40.9518746 C3.83086466,39.4380606 5.04158137,38.2363009 6.56669479,38.2363009 Z" id="Shape"></path>
                        </g>
                    </g>
                </g>
            </g>
        </g>
    </g>
</svg>