<?xml version="1.0" encoding="UTF-8"?>
<svg width="37px" height="32px" viewBox="0 0 37 32" version="1.1" xmlns="http://www.w3.org/2000/svg" xmlns:xlink="http://www.w3.org/1999/xlink">
    <!-- Generator: sketchtool 51.2 (57519) - http://www.bohemiancoding.com/sketch -->
    <title>D26596EE-4ED7-440D-8367-CC12894FC9F6</title>
    <desc>Created with sketchtool.</desc>
    <defs></defs>
    <g id="Page-1" stroke="none" stroke-width="1" fill="none" fill-rule="evenodd">
        <g id="Landing-Page--Light" transform="translate(-49.000000, -23.000000)" fill="#FFFFFF" fill-rule="nonzero">
            <g id="Group" transform="translate(49.000000, 23.000000)">
                <g id="photo-camera">
                    <path d="M34.5322121,31.9599286 L2.34109091,31.9599286 C1.05057576,31.9599286 0,30.8556071 0,29.4990714 L0,6.88464286 C0,5.52928571 1.05057576,4.42614286 2.34109091,4.42614286 L34.5322121,4.42614286 C35.8216061,4.42614286 36.8710606,5.52928571 36.8710606,6.88464286 L36.8710606,29.4990714 C36.8710606,30.8556071 35.8216061,31.9599286 34.5322121,31.9599286 Z M2.34109091,5.60471429 C1.66836364,5.60471429 1.12121212,6.17985714 1.12121212,6.88464286 L1.12121212,29.4990714 C1.12121212,30.2062143 1.66836364,30.7813571 2.34109091,30.7813571 L34.5322121,30.7813571 C35.2038182,30.7813571 35.7498485,30.2062143 35.7498485,29.4990714 L35.7498485,6.88464286 C35.7498485,6.17867857 35.2038182,5.60471429 34.5322121,5.60471429 L2.34109091,5.60471429 Z" id="Shape"></path>
                    <path d="M24.2495758,26.1153929 C20.0932424,26.1153929 16.7116667,22.5608214 16.7116667,18.1918571 C16.7116667,13.8240714 20.0932424,10.2706786 24.2495758,10.2706786 C28.4059091,10.2706786 31.7863636,13.8240714 31.7863636,18.1918571 C31.7863636,22.5608214 28.4059091,26.1153929 24.2495758,26.1153929 Z M24.2495758,11.44925 C20.7121515,11.44925 17.8328788,14.4734643 17.8328788,18.1918571 C17.8328788,21.91025 20.7110303,24.9368214 24.2495758,24.9368214 C27.787,24.9368214 30.6651515,21.9114286 30.6651515,18.1918571 C30.6651515,14.4746429 27.787,11.44925 24.2495758,11.44925 Z" id="Shape"></path>
                    <path d="M12.5990606,5.60471429 L5.84936364,5.60471429 C5.53990909,5.60471429 5.28875758,5.34071429 5.28875758,5.01542857 L5.28875758,0.672392857 C5.28875758,0.347107143 5.53990909,0.0831071429 5.84936364,0.0831071429 L12.6001818,0.0831071429 C12.9096364,0.0831071429 13.1607879,0.347107143 13.1607879,0.672392857 L13.1607879,5.01660714 C13.1596667,5.34189286 12.9096364,5.60471429 12.5990606,5.60471429 Z M6.4099697,4.42614286 L12.0395758,4.42614286 L12.0395758,1.26167857 L6.4099697,1.26167857 L6.4099697,4.42614286 Z" id="Shape"></path>
                    <path d="M24.2495758,20.1471071 C23.2236667,20.1471071 22.3906061,19.27025 22.3906061,18.1930357 C22.3906061,17.1158214 23.2247879,16.2401429 24.2495758,16.2401429 C25.2743636,16.2401429 26.1074242,17.117 26.1074242,18.1930357 C26.1085455,19.27025 25.2743636,20.1471071 24.2495758,20.1471071 Z M24.2495758,17.4175357 C23.8425758,17.4175357 23.5118182,17.7652143 23.5118182,18.1918571 C23.5118182,18.6196786 23.8425758,18.9673571 24.2495758,18.9673571 C24.6554545,18.9673571 24.9862121,18.6196786 24.9862121,18.1918571 C24.9873333,17.7652143 24.6565758,17.4175357 24.2495758,17.4175357 Z" id="Shape"></path>
                </g>
            </g>
        </g>
    </g>
</svg>