<?xml version="1.0" encoding="UTF-8"?>
<svg width="53px" height="53px" viewBox="0 0 53 53" version="1.1" xmlns="http://www.w3.org/2000/svg" xmlns:xlink="http://www.w3.org/1999/xlink">
    <!-- Generator: sketchtool 51.2 (57519) - http://www.bohemiancoding.com/sketch -->
    <title>FF4C1B86-85F3-4DA2-9FFB-7BD2AA36994D</title>
    <desc>Created with sketchtool.</desc>
    <defs></defs>
    <g id="Page-1" stroke="none" stroke-width="1" fill="none" fill-rule="evenodd">
        <g id="UPLOAD-1-Light" transform="translate(-878.000000, -355.000000)" fill="#E4E4E4" fill-rule="nonzero">
            <g id="drag" transform="translate(878.000000, 355.000000)">
                <path d="M52.923,0.618 C52.822,0.373 52.627,0.178 52.382,0.077 C52.26,0.026 52.13,0 52,0 L33.455,0 C32.903,0 32.455,0.447 32.455,1 C32.455,1.553 32.903,2 33.455,2 L49.586,2 L23.586,28 L0,28 L0,53 L25,53 L25,29.414 L51,3.414 L51,19.546 C51,20.099 51.448,20.546 52,20.546 C52.552,20.546 53,20.099 53,19.546 L53,1 C53,0.87 52.973,0.74 52.923,0.618 Z M23,51 L2,51 L2,30 L23,30 L23,51 Z" id="Shape"></path>
            </g>
        </g>
    </g>
</svg>