<?xml version="1.0" encoding="UTF-8"?>
<svg width="197px" height="137px" viewBox="0 0 197 137" version="1.1" xmlns="http://www.w3.org/2000/svg" xmlns:xlink="http://www.w3.org/1999/xlink">
    <!-- Generator: sketchtool 51.2 (57519) - http://www.bohemiancoding.com/sketch -->
    <title>44B45F55-EE1B-4E28-9490-6BF921A8F61E</title>
    <desc>Created with sketchtool.</desc>
    <defs></defs>
    <g id="Page-1" stroke="none" stroke-width="1" fill="none" fill-rule="evenodd" opacity="0.105357143">
        <g id="About--Light" transform="translate(-755.000000, -329.000000)" fill="#666565" fill-rule="nonzero">
            <path d="M939.447423,408.773887 L942.945682,387.665333 L943.014276,387.117059 L938.075557,368.955478 L915.302577,336.881441 L889.168524,332.974987 L888.208217,332.837919 L887.110724,332.70085 L858.987465,329 L850.756267,336.607304 C847.463788,336.607304 821.055362,335.510755 803.083914,334.756878 C802.992456,334.756878 802.695218,334.756878 802.192201,334.756878 L801.163301,335.716358 L772.628482,361.690845 L771.256616,362.924462 L770.159123,363.883942 L769.816156,364.50075 L757.057799,389.721361 L757.812326,420.493247 L755,426.181591 L764.465877,434.131566 L766.112117,433.514757 L768.307103,420.904452 L763.025418,418.77989 L762.682451,393.696348 L767.072423,385.266633 L775.852368,440.642321 L779.556407,466 L800.408774,466 L800.408774,461.476738 L795.195682,450.237119 L794.372563,430.01951 L803.083914,419.328164 L849.315808,411.172586 L854.11734,440.710855 L857.821379,466 L878.399373,466 L878.399373,461.476738 L873.186281,450.305653 L874.969708,428.032016 L877.91922,403.565283 L893.215529,384.512756 L910.706825,387.665333 L921.475975,408.157079 L925.111421,409.801901 L924.494081,424.673837 L921.338788,428.032016 L916.40007,427.415208 L912.421657,432.212606 L924.768454,438.997499 L935.469011,428.58029 L936.154944,427.963482 L936.360724,426.661331 L938.212744,415.627314 L950.079387,420.972986 L952,416.244122 L939.447423,408.773887 Z M936.801047,409 L936.39267,408.71223 L927,402.669065 L927.340314,394.683453 L940,389 L936.801047,409 Z M940,386.235294 L926.231788,392 L919,384.245098 L935.688742,371 L940,386.235294 Z M926,393.428571 L925.793103,398 L922,389 L926,393.428571 Z M847.983638,338.71875 L836.59769,349.44375 L838.753609,366.8375 L875,385.74375 L847.242541,392 L805,337 C832.555342,338.2375 843.537055,338.65 847.983638,338.71875 Z M767,421.464968 L765.317073,430 L758,424.649682 L760.121951,420.828025 L762.756098,420 L767,421.464968 Z M766.094891,381.008633 L760.379562,392.369784 L760.839416,417.526619 L759.985401,417.864748 L759.722628,418 L759,389.326619 L768,371 L766.094891,381.008633 Z M799,462.762712 L799,465 L781.464646,465 L778,441.648305 L788.818182,434.65678 L792.848485,432 L793.555556,451.366525 L799,462.762712 Z M793.334034,429.068966 L778.151261,439 L769,381.896552 L771.911765,367 L783.905462,387.482759 L802,418.310345 L793.334034,429.068966 Z M802.855098,418 L784.328265,386.397601 L772,365.352185 L802.235242,338 L846.382826,394.006855 L848.724508,408.128535 L849,409.910883 L802.855098,418 Z M875,460.80202 L875,463 L858.34471,463 L855,440.058586 L871.382253,429 L869.744027,449.743434 L875,460.80202 Z M876.616822,405.586207 L874.023364,426.482759 L856.570093,438 L851.873832,409.862069 L849,392.551724 L879,386 L876.616822,405.586207 Z M839.958042,365.857326 L838,350.733933 L858.909091,332 L886.951049,335.542416 L887.79021,367.287918 L888,374.645244 L882.335664,380.844473 L878.48951,385 L839.958042,365.857326 Z M879,399 L880.63388,386.266667 L880.704918,385.866667 L881.415301,385.133333 L884.469945,381.933333 L889.15847,377 L889.300546,383.4 L892,383.866667 L879,399 Z M890.180207,383.209459 L890.041359,376.110811 L890.041359,375.628378 L889.971935,373.078378 L889,336 L913.923191,339.377027 L936,370.321622 L922.809453,380.866216 L918.15805,384.587838 L911.423929,387 L890.180207,383.209459 Z M915,431.386364 L916.650943,429 L920.216981,429.556818 L922,436 L915,431.386364 Z M924.133333,436 L922,429.93617 L924.866667,427 L930,428.212766 L932,428.659574 L924.133333,436 Z M934.276596,427 L927,425.026432 L927.510638,411 L934.085106,414.312775 L936,415.229075 L934.276596,427 Z M949.514071,419 L923.204503,407.150313 L913,387.791232 L918.136961,386 L925.703565,403.223382 L939.448405,411.490605 L950,417.82881 L949.514071,419 Z" id="Shape"></path>
        </g>
    </g>
</svg>