<?xml version="1.0" encoding="UTF-8"?>
<svg width="100px" height="22px" viewBox="0 0 100 22" version="1.1" xmlns="http://www.w3.org/2000/svg" xmlns:xlink="http://www.w3.org/1999/xlink">
    <!-- Generator: sketchtool 51.2 (57519) - http://www.bohemiancoding.com/sketch -->
    <title>F2BDEC79-F82C-4910-8181-F30EAD39DFA8</title>
    <desc>Created with sketchtool.</desc>
    <defs></defs>
    <g id="Page-1" stroke="none" stroke-width="1" fill="none" fill-rule="evenodd">
        <g id="Landing-Page--Light" transform="translate(-70.000000, -31.000000)" fill-rule="nonzero">
            <g id="Microsoft_logo_(2012)" transform="translate(70.000000, 31.000000)">
                <path d="M35.2980132,12.3013245 L34.7019868,13.9900662 L34.6523179,13.9900662 C34.5529801,13.6092715 34.3708609,13.0298013 34.0728477,12.3344371 L30.8774834,4.30463576 L27.7483444,4.30463576 L27.7483444,17.102649 L29.8178808,17.102649 L29.8178808,9.20529801 C29.8178808,8.70860927 29.8178808,8.14569536 29.8013245,7.45033113 C29.7847682,7.10264901 29.7516556,6.83774834 29.7350993,6.63907285 L29.7847682,6.63907285 C29.884106,7.13576159 30,7.5 30.0827815,7.73178808 L33.9238411,17.0695364 L35.3807947,17.0695364 L39.1887417,7.64900662 C39.2715232,7.43377483 39.3543046,7.00331126 39.4370861,6.63907285 L39.486755,6.63907285 C39.4370861,7.58278146 39.4039735,8.42715232 39.3874172,8.94039735 L39.3874172,17.0529801 L41.589404,17.0529801 L41.589404,4.27152318 L38.5761589,4.27152318 L35.2980132,12.3013245 Z M43.6754967,7.8807947 L45.8278146,7.8807947 L45.8278146,17.0529801 L43.6754967,17.0529801 L43.6754967,7.8807947 Z M44.7682119,4.00662252 C44.4039735,4.00662252 44.1059603,4.13907285 43.8576159,4.37086093 C43.6092715,4.60264901 43.4768212,4.90066225 43.4768212,5.26490066 C43.4768212,5.61258278 43.6092715,5.91059603 43.8576159,6.14238411 C44.1059603,6.37417219 44.4039735,6.49006623 44.7682119,6.49006623 C45.1324503,6.49006623 45.4470199,6.35761589 45.6788079,6.14238411 C45.9271523,5.91059603 46.0596026,5.61258278 46.0596026,5.26490066 C46.0596026,4.91721854 45.9271523,4.6192053 45.6788079,4.37086093 C45.4635762,4.13907285 45.1490066,4.00662252 44.7682119,4.00662252 Z M53.4602649,7.79801325 C53.0629139,7.71523179 52.6490066,7.66556291 52.2516556,7.66556291 C51.2748344,7.66556291 50.3807947,7.8807947 49.6357616,8.31125828 C48.8907285,8.74172185 48.294702,9.33774834 47.9139073,10.0827815 C47.5165563,10.8443709 47.3178808,11.7218543 47.3178808,12.7317881 C47.3178808,13.6092715 47.5165563,14.3874172 47.897351,15.0993377 C48.2781457,15.794702 48.807947,16.3576159 49.5198675,16.7384106 C50.1986755,17.1192053 50.9933775,17.3178808 51.8874172,17.3178808 C52.9139073,17.3178808 53.7913907,17.102649 54.486755,16.705298 L54.5033113,16.6887417 L54.5033113,14.7019868 L54.4205298,14.7682119 C54.1059603,15 53.7417219,15.1986755 53.3774834,15.3145695 C52.9966887,15.4470199 52.6490066,15.513245 52.3509934,15.513245 C51.4900662,15.513245 50.8112583,15.2649007 50.3311258,14.718543 C49.8344371,14.1887417 49.5860927,13.4602649 49.5860927,12.5496689 C49.5860927,11.6059603 49.8344371,10.8609272 50.3476821,10.3145695 C50.8609272,9.76821192 51.5397351,9.48675497 52.3675497,9.48675497 C53.0629139,9.48675497 53.7748344,9.71854305 54.4205298,10.1821192 L54.5033113,10.2483444 L54.5033113,8.14569536 L54.486755,8.12913907 C54.205298,8.01324503 53.8907285,7.8807947 53.4602649,7.79801325 Z M60.5629139,7.73178808 C60.0331126,7.73178808 59.5364238,7.89735099 59.1059603,8.24503311 C58.7417219,8.54304636 58.4933775,8.97350993 58.2781457,9.48675497 L58.2615894,9.48675497 L58.2615894,7.8807947 L56.1092715,7.8807947 L56.1092715,17.0529801 L58.2615894,17.0529801 L58.2615894,12.3675497 C58.2615894,11.5728477 58.4271523,10.910596 58.7913907,10.4304636 C59.1556291,9.93377483 59.6192053,9.68543046 60.1821192,9.68543046 C60.3807947,9.68543046 60.5794702,9.73509934 60.8278146,9.76821192 C61.0596026,9.83443709 61.2251656,9.90066225 61.3410596,9.98344371 L61.4238411,10.0496689 L61.4238411,7.89735099 L61.3741722,7.8807947 C61.2251656,7.78145695 60.9271523,7.73178808 60.5629139,7.73178808 Z M75.7781457,11.6887417 C75.0993377,11.4072848 74.6688742,11.192053 74.4701987,11.0099338 C74.3046358,10.8443709 74.2218543,10.6125828 74.2218543,10.3145695 C74.2218543,10.0662252 74.3211921,9.81788079 74.5695364,9.65231788 C74.8178808,9.48675497 75.0993377,9.40397351 75.513245,9.40397351 C75.8774834,9.40397351 76.2582781,9.47019868 76.6225166,9.56953642 C76.986755,9.66887417 77.3178808,9.81788079 77.5827815,10.0165563 L77.6655629,10.0827815 L77.6655629,8.06291391 L77.615894,8.04635762 C77.3675497,7.94701987 77.0364238,7.84768212 76.6390728,7.76490066 C76.2417219,7.6986755 75.8774834,7.66556291 75.5794702,7.66556291 C74.5529801,7.66556291 73.7086093,7.91390728 73.0463576,8.4602649 C72.384106,8.97350993 72.0695364,9.66887417 72.0695364,10.4801325 C72.0695364,10.910596 72.1357616,11.2913907 72.2847682,11.6059603 C72.4337748,11.9205298 72.6490066,12.218543 72.9470199,12.4668874 C73.2450331,12.6986755 73.6754967,12.9635762 74.2715232,13.2119205 C74.7682119,13.4271523 75.1490066,13.5927152 75.3807947,13.7251656 C75.6125828,13.8576159 75.7615894,14.0066225 75.8774834,14.1225166 C75.9602649,14.2549669 76.0099338,14.4205298 76.0099338,14.6357616 C76.0099338,15.2483444 75.5463576,15.5463576 74.602649,15.5463576 C74.2384106,15.5463576 73.8576159,15.4801325 73.410596,15.3311258 C72.9635762,15.1821192 72.5496689,14.9668874 72.2019868,14.718543 L72.1192053,14.6523179 L72.1192053,16.7549669 L72.1688742,16.7715232 C72.4834437,16.9205298 72.8642384,17.0198675 73.3278146,17.1357616 C73.7913907,17.218543 74.205298,17.2847682 74.5695364,17.2847682 C75.6788079,17.2847682 76.589404,17.0364238 77.2350993,16.4900662 C77.897351,15.9602649 78.2450331,15.281457 78.2450331,14.4039735 C78.2450331,13.7913907 78.0794702,13.2450331 77.7152318,12.8311258 C77.2350993,12.4337748 76.6390728,12.0198675 75.7781457,11.6887417 Z M95.6456954,14.3708609 C95.6456954,16.307947 96.5562914,17.2847682 98.3774834,17.2847682 C98.6754967,17.2847682 98.9900662,17.2350993 99.2880795,17.1854305 C99.602649,17.1192053 99.8344371,17.0364238 99.9668874,16.9701987 L99.9834437,16.9536424 L99.9834437,15.1821192 L99.9006623,15.2483444 C99.7682119,15.3311258 99.6523179,15.397351 99.4536424,15.4470199 C99.2880795,15.4966887 99.1390728,15.513245 99.0231788,15.513245 C98.5927152,15.513245 98.294702,15.4139073 98.0794702,15.1655629 C97.8807947,14.9337748 97.781457,14.5529801 97.781457,13.9900662 L97.781457,9.10596026 L97.8145695,9.10596026 L97.8145695,5.16556291 L97.7483444,5.18211921 L95.6953642,5.79470199 L95.6456954,5.81125828 L95.6456954,14.3708609 Z M92.4006623,6.7218543 C92.4006623,6.19205298 92.5331126,5.7781457 92.7649007,5.51324503 C92.9966887,5.24834437 93.3443709,5.11589404 93.7748344,5.11589404 C94.0728477,5.11589404 94.3874172,5.18211921 94.7350993,5.33112583 L94.8178808,5.3807947 L94.8178808,3.50993377 L94.7682119,3.49337748 C94.4701987,3.39403974 94.0728477,3.32781457 93.5596026,3.32781457 C92.9139073,3.32781457 92.3509934,3.47682119 91.8377483,3.72516556 C91.3245033,4.00662252 90.9437086,4.38741722 90.6622517,4.90066225 C90.3807947,5.39735099 90.2317881,5.9602649 90.2317881,6.60596026 L90.2317881,17.0529801 L92.4006623,17.0529801 L92.4006623,6.7218543 Z M91.0596026,9.65231788 L99.9834437,9.65231788 L99.9834437,7.8807947 L88.7251656,7.8807947 L88.7251656,9.63576159 L91.0596026,9.63576159 L91.0596026,9.65231788 Z" id="Shape" fill="#FFFFFF"></path>
                <path d="M66.4238411,7.68211921 C64.9172185,7.68211921 63.7086093,8.12913907 62.8642384,9.00662252 C62.0033113,9.88410596 61.589404,11.0927152 61.589404,12.615894 C61.589404,14.0397351 62.0198675,15.1986755 62.8476821,16.0430464 C63.6754967,16.8708609 64.8013245,17.3013245 66.2086093,17.3013245 C67.6821192,17.3013245 68.8576159,16.8543046 69.7019868,15.9602649 C70.5629139,15.0662252 70.9768212,13.8741722 70.9768212,12.4006623 C70.9768212,10.9437086 70.5794702,9.78476821 69.7682119,8.94039735 C68.9900662,8.09602649 67.8476821,7.68211921 66.4238411,7.68211921 M68.1456954,14.7350993 C67.7483444,15.2483444 67.1192053,15.4966887 66.3410596,15.4966887 C65.5629139,15.4966887 64.9337748,15.2483444 64.486755,14.7019868 C64.0397351,14.1887417 63.8245033,13.4437086 63.8245033,12.5 C63.8245033,11.5231788 64.0562914,10.7781457 64.486755,10.2483444 C64.9337748,9.71854305 65.5463576,9.45364238 66.3245033,9.45364238 C67.0860927,9.45364238 67.6821192,9.70198675 68.1125828,10.2152318 C68.5430464,10.7284768 68.7748344,11.4735099 68.7748344,12.4503311 C68.7417219,13.4437086 68.5596026,14.2218543 68.1456954,14.7350993" id="o" fill="#FFFFFF"></path>
                <g id="o-link" transform="translate(79.089404, 7.615894)" fill="#FFFFFF">
                    <path d="M4.83443709,0.0662251656 C3.32781457,0.0662251656 2.1192053,0.513245033 1.27483444,1.39072848 C0.413907285,2.26821192 0,3.47682119 0,5 C0,6.42384106 0.430463576,7.58278146 1.25827815,8.42715232 C2.08609272,9.25496689 3.21192053,9.68543046 4.6192053,9.68543046 C6.09271523,9.68543046 7.26821192,9.2384106 8.11258278,8.34437086 C8.97350993,7.45033113 9.38741722,6.25827815 9.38741722,4.78476821 C9.38741722,3.32781457 8.99006623,2.16887417 8.17880795,1.32450331 C7.40066225,0.48013245 6.25827815,0.0662251656 4.83443709,0.0662251656 M6.55629139,7.1192053 C6.1589404,7.63245033 5.52980132,7.8807947 4.75165563,7.8807947 C3.97350993,7.8807947 3.34437086,7.63245033 2.89735099,7.08609272 C2.45033113,6.57284768 2.23509934,5.82781457 2.23509934,4.88410596 C2.23509934,3.90728477 2.46688742,3.16225166 2.89735099,2.63245033 C3.34437086,2.10264901 3.95695364,1.83774834 4.73509934,1.83774834 C5.49668874,1.83774834 6.09271523,2.08609272 6.52317881,2.59933775 C6.95364238,3.11258278 7.18543046,3.85761589 7.18543046,4.83443709 C7.15231788,5.82781457 6.97019868,6.60596026 6.55629139,7.1192053" id="o"></path>
                </g>
                <polygon id="Shape" fill="#F25022" points="0 0 10.1490066 0 10.1490066 10.1490066 0 10.1490066"></polygon>
                <polygon id="Shape" fill="#7FBA00" points="11.2086093 0 21.3576159 0 21.3576159 10.1490066 11.2086093 10.1490066"></polygon>
                <polygon id="Shape" fill="#00A4EF" points="0 11.2086093 10.1490066 11.2086093 10.1490066 21.3576159 0 21.3576159"></polygon>
                <polygon id="Shape" fill="#FFB900" points="11.2086093 11.2086093 21.3576159 11.2086093 21.3576159 21.3576159 11.2086093 21.3576159"></polygon>
            </g>
        </g>
    </g>
</svg>