<?xml version="1.0" encoding="UTF-8"?>
<svg width="14px" height="14px" viewBox="0 0 14 14" version="1.1" xmlns="http://www.w3.org/2000/svg" xmlns:xlink="http://www.w3.org/1999/xlink">
    <!-- Generator: sketchtool 51.2 (57519) - http://www.bohemiancoding.com/sketch -->
    <title>E4D6D76C-DD55-4B39-9ACA-5A7050398453</title>
    <desc>Created with sketchtool.</desc>
    <defs></defs>
    <g id="Page-1" stroke="none" stroke-width="1" fill="none" fill-rule="evenodd">
        <g id="UPLOAD-1-Light" transform="translate(-1071.000000, -526.000000)" fill="#9B9B9B" fill-rule="nonzero">
            <path d="M1078,526 C1074.14016,526 1071,529.140156 1071,533 C1071,534.46825 1071.44975,535.873719 1072.30047,537.064594 L1073.26384,538.03125 L1071.4375,538.03125 L1071.4375,538.46875 L1073.84375,538.46875 L1074.0625,538.25 L1074.0625,535.84375 L1073.625,535.84375 L1073.625,537.774875 L1072.64587,536.795531 C1071.85531,535.682531 1071.4375,534.370688 1071.4375,533 C1071.4375,529.381437 1074.38144,526.4375 1078,526.4375 C1081.61856,526.4375 1084.5625,529.381437 1084.5625,533 C1084.5625,536.618563 1081.61856,539.5625 1078,539.5625 L1078,540 C1081.85984,540 1085,536.859844 1085,533 C1085,529.140156 1081.85984,526 1078,526 Z" id="Shape"></path>
        </g>
    </g>
</svg>